<svg xmlns="http://www.w3.org/2000/svg" xmlns:v="https://svgstorm.com"
viewBox = "0 0 620 620"
width="620"
height="620">
<g fill="None" fill-opacity="0.0" stroke="#000000" stroke-opacity="0.00" stroke-width="0.3"><path d="
M 0.00 620.00 
L 620.00 620.00
L 620.00 0.00
L 0.00 0.00
L 0.00 620.00
M 312.00 618.00 
C 309.18 618.27 305.76 618.27 303.00 618.00
C 220.66 618.00 146.33 576.18 96.23 509.77 C 46.13 443.36 25.98 342.33 53.00 261.00
C 60.84 265.31 66.21 274.31 74.00 279.00
C 50.82 367.59 79.04 468.96 147.00 529.00
C 152.70 507.75 157.77 486.38 163.00 465.00
C 122.48 415.30 103.96 342.59 133.00 283.00
C 105.57 274.59 81.64 266.41 64.70 240.30 C 47.75 214.20 56.92 176.92 46.22 147.78 C 35.52 118.64 33.33 83.48 34.93 52.93 C 36.53 22.37 63.33 -3.42 93.02 1.98 C 122.72 7.37 141.40 24.04 160.75 45.25 C 180.11 66.45 193.53 86.44 208.00 110.00
C 268.96 71.96 351.53 72.99 413.00 109.00
C 427.63 85.61 439.77 66.47 459.30 45.30 C 478.84 24.14 497.30 7.40 527.00 2.00 C 556.70 -3.40 583.22 22.21 585.00 53.00 C 586.78 83.79 584.48 118.73 573.67 147.67 C 562.86 176.61 572.37 214.31 555.25 240.25 C 538.12 266.18 514.69 274.86 487.00 283.00
C 516.83 342.24 497.64 415.70 457.00 465.00
C 462.43 486.72 467.62 508.53 474.00 530.00
C 479.54 523.50 485.16 518.78 490.75 512.75 C 496.33 506.72 501.34 500.06 506.25 493.25 C 511.17 486.45 515.02 479.71 519.31 472.31 C 523.59 464.90 527.71 457.41 531.31 449.31 C 534.90 441.20 538.16 433.73 540.93 424.93 C 543.70 416.13 546.01 406.65 548.33 397.33 C 550.65 388.01 551.95 378.01 553.00 368.00 C 554.05 357.99 554.15 345.53 554.22 335.78 C 554.29 326.03 552.04 312.91 552.00 304.00 C 551.96 295.09 543.92 283.63 548.25 277.25 C 552.58 270.87 561.78 266.12 567.00 261.00
C 594.19 344.24 573.90 442.62 523.08 511.08 C 472.27 579.55 395.70 617.57 312.00 618.00 Z"/>
</g>
<g fill="None" fill-opacity="0.0" stroke="#000000" stroke-opacity="1.00" stroke-width="0.3"><path d="
M 303.00 618.00 
C 306.00 618.00 309.00 618.00 312.00 618.00
C 395.70 617.57 472.27 579.55 523.08 511.08 C 573.90 442.62 594.19 344.24 567.00 261.00
C 561.78 266.12 552.58 270.87 548.25 277.25 C 543.92 283.63 551.96 295.09 552.00 304.00 C 552.04 312.91 554.29 326.03 554.22 335.78 C 554.15 345.53 554.05 357.99 553.00 368.00 C 551.95 378.01 550.65 388.01 548.33 397.33 C 546.01 406.65 543.70 416.13 540.93 424.93 C 538.16 433.73 534.90 441.20 531.31 449.31 C 527.71 457.41 523.59 464.90 519.31 472.31 C 515.02 479.71 511.17 486.45 506.25 493.25 C 501.34 500.06 496.33 506.72 490.75 512.75 C 485.16 518.78 479.54 523.50 474.00 530.00
C 467.62 508.53 462.43 486.72 457.00 465.00
C 497.64 415.70 516.83 342.24 487.00 283.00
C 514.69 274.86 538.12 266.18 555.25 240.25 C 572.37 214.31 562.86 176.61 573.67 147.67 C 584.48 118.73 586.78 83.79 585.00 53.00 C 583.22 22.21 556.70 -3.40 527.00 2.00 C 497.30 7.40 478.84 24.14 459.30 45.30 C 439.77 66.47 427.63 85.61 413.00 109.00
C 351.53 72.99 268.96 71.96 208.00 110.00
C 193.53 86.44 180.11 66.45 160.75 45.25 C 141.40 24.04 122.72 7.37 93.02 1.98 C 63.33 -3.42 36.53 22.37 34.93 52.93 C 33.33 83.48 35.52 118.64 46.22 147.78 C 56.92 176.92 47.75 214.20 64.70 240.30 C 81.64 266.41 105.57 274.59 133.00 283.00
C 103.96 342.59 122.48 415.30 163.00 465.00
C 157.77 486.38 152.70 507.75 147.00 529.00
C 79.04 468.96 50.82 367.59 74.00 279.00
C 66.21 274.31 60.84 265.31 53.00 261.00
C 25.98 342.33 46.13 443.36 96.23 509.77 C 146.33 576.18 220.66 618.00 303.00 618.00
M 321.00 297.00 
C 319.69 289.26 321.14 280.93 321.00 273.00 C 320.86 265.07 320.19 255.93 321.00 248.00
C 321.38 244.33 322.63 240.91 325.00 238.00
C 336.12 260.11 372.25 243.39 361.22 223.78 C 350.19 204.17 332.33 196.74 311.00 197.00 C 289.66 197.26 272.32 202.14 260.08 222.08 C 247.83 242.01 282.94 261.41 295.00 238.00
C 302.22 245.73 298.20 257.46 299.00 268.00 C 299.80 278.54 298.40 291.26 299.00 302.00
C 287.55 306.68 278.29 316.10 270.25 326.25 C 262.21 336.40 257.79 347.21 247.75 356.75 C 237.71 366.29 231.24 373.83 216.98 378.98 C 202.71 384.12 188.48 385.60 171.98 381.02 C 155.47 376.45 160.54 361.10 174.23 354.23 C 187.92 347.36 191.05 332.74 194.00 320.00
C 183.05 328.00 175.74 341.39 160.77 345.77 C 145.80 350.15 139.22 367.28 137.00 381.00
C 129.29 366.58 131.37 339.28 147.70 331.70 C 164.03 324.11 173.26 311.55 181.75 296.75 C 190.24 281.96 199.79 270.02 208.75 255.75 C 217.72 241.48 227.25 228.77 236.75 214.75 C 246.25 200.73 259.62 189.85 276.00 185.00
C 271.23 164.31 254.26 150.39 254.00 128.00 C 253.74 105.61 291.92 103.58 309.00 104.00 C 326.08 104.42 363.78 103.70 366.00 126.00 C 368.22 148.30 347.76 164.08 345.00 185.00
C 360.15 190.86 374.62 200.10 383.75 214.25 C 392.88 228.39 402.53 241.00 411.77 255.23 C 421.01 269.46 430.29 281.86 439.25 296.75 C 448.22 311.63 456.34 323.77 473.25 331.75 C 490.15 339.74 489.35 368.37 483.00 383.00
C 478.94 374.51 480.13 361.64 472.75 354.25 C 465.37 346.86 456.53 344.00 447.92 339.08 C 439.32 334.15 434.78 324.03 427.00 320.00
C 430.41 332.72 431.73 347.32 445.75 354.25 C 459.77 361.18 464.38 377.02 447.31 381.31 C 430.24 385.59 415.82 384.34 401.78 378.22 C 387.74 372.11 380.66 365.30 371.08 354.92 C 361.51 344.54 356.28 334.62 348.23 323.77 C 340.18 312.92 327.63 307.35 321.00 297.00
M 199.00 191.00 
C 211.89 194.91 204.97 216.65 192.00 212.00 C 179.03 207.35 185.29 186.84 199.00 191.00
M 429.00 191.00 
C 441.54 194.81 433.57 217.69 420.78 211.22 C 407.99 204.75 415.53 186.91 429.00 191.00
M 299.00 228.00 
C 293.46 222.57 285.02 223.27 279.00 227.00
C 278.91 214.41 303.38 213.35 299.00 228.00
M 341.00 227.00 
C 335.05 222.60 326.44 222.98 321.00 228.00
C 316.86 213.49 341.29 214.19 341.00 227.00
M 310.00 425.00 
C 309.03 405.73 322.32 372.12 347.22 383.78 C 372.13 395.43 360.27 426.68 358.22 448.22 C 356.17 469.76 330.61 484.17 311.00 484.00 C 291.39 483.83 265.15 472.21 262.22 450.78 C 259.29 429.34 248.96 396.56 272.08 384.08 C 295.19 371.60 313.65 404.67 310.00 425.00
M 247.00 473.00 
C 215.55 466.40 183.48 437.50 185.00 403.00
C 204.35 402.92 205.76 425.62 219.70 434.30 C 233.63 442.99 243.81 456.76 247.00 473.00
M 435.00 403.00 
C 436.71 437.22 405.66 467.07 374.00 473.00
C 376.33 456.47 386.97 443.59 400.75 434.75 C 414.53 425.91 416.17 403.48 435.00 403.00
M 392.00 505.00 
C 404.97 502.53 415.72 494.11 426.00 486.00
C 431.30 512.82 428.28 540.98 422.00 567.00
C 404.09 574.89 388.63 582.46 369.32 587.32 C 350.01 592.18 323.79 596.60 303.00 595.00 C 282.21 593.40 258.52 591.14 239.98 584.02 C 221.43 576.91 200.97 574.42 196.01 553.99 C 191.05 533.57 190.71 507.39 194.00 486.00
C 203.46 490.84 210.68 499.59 221.22 502.78 C 231.77 505.96 234.82 518.13 243.25 525.75 C 251.68 533.37 258.96 539.82 269.70 544.31 C 280.43 548.79 292.71 552.30 305.00 553.00 C 317.29 553.70 333.04 550.83 344.07 547.07 C 355.10 543.32 363.69 537.69 372.25 530.25 C 380.81 522.81 388.10 515.49 392.00 505.00
M 378.00 492.00 
C 354.29 545.33 266.60 545.05 243.00 492.00
C 267.74 492.27 284.62 507.81 310.00 508.00 C 335.38 508.19 353.28 492.45 378.00 492.00 Z"/>
</g>
<g fill="None" fill-opacity="0.0" stroke="#FDFDFE" stroke-opacity="1.00" stroke-width="0.3"><path d="
M 321.00 248.00 
C 320.96 255.09 321.75 264.14 322.00 272.00 C 322.25 279.86 320.49 290.05 321.00 297.00
C 327.63 307.35 340.18 312.92 348.23 323.77 C 356.28 334.62 361.51 344.54 371.08 354.92 C 380.66 365.30 387.74 372.11 401.78 378.22 C 415.82 384.34 430.24 385.59 447.31 381.31 C 464.38 377.02 459.77 361.18 445.75 354.25 C 431.73 347.32 430.41 332.72 427.00 320.00
C 434.78 324.03 439.32 334.15 447.92 339.08 C 456.53 344.00 465.37 346.86 472.75 354.25 C 480.13 361.64 478.94 374.51 483.00 383.00
C 489.35 368.37 490.15 339.74 473.25 331.75 C 456.34 323.77 448.22 311.63 439.25 296.75 C 430.29 281.86 421.01 269.46 411.77 255.23 C 402.53 241.00 392.88 228.39 383.75 214.25 C 374.62 200.10 360.15 190.86 345.00 185.00
C 347.76 164.08 368.22 148.30 366.00 126.00 C 363.78 103.70 326.08 104.42 309.00 104.00 C 291.92 103.58 253.74 105.61 254.00 128.00 C 254.26 150.39 271.23 164.31 276.00 185.00
C 259.62 189.85 246.25 200.73 236.75 214.75 C 227.25 228.77 217.72 241.48 208.75 255.75 C 199.79 270.02 190.24 281.96 181.75 296.75 C 173.26 311.55 164.03 324.11 147.70 331.70 C 131.37 339.28 129.29 366.58 137.00 381.00
C 139.22 367.28 145.80 350.15 160.77 345.77 C 175.74 341.39 183.05 328.00 194.00 320.00
C 191.05 332.74 187.92 347.36 174.23 354.23 C 160.54 361.10 155.47 376.45 171.98 381.02 C 188.48 385.60 202.71 384.12 216.98 378.98 C 231.24 373.83 237.71 366.29 247.75 356.75 C 257.79 347.21 262.21 336.40 270.25 326.25 C 278.29 316.10 287.55 306.68 299.00 302.00
C 298.40 291.26 299.80 278.54 299.00 268.00 C 298.20 257.46 302.22 245.73 295.00 238.00
C 282.94 261.41 247.83 242.01 260.08 222.08 C 272.32 202.14 289.66 197.26 311.00 197.00 C 332.33 196.74 350.19 204.17 361.22 223.78 C 372.25 243.39 336.12 260.11 325.00 238.00
C 322.63 240.91 321.38 244.33 321.00 248.00
M 235.00 269.00 
C 242.00 270.12 241.17 282.16 233.30 281.64 C 225.44 281.13 226.85 267.69 235.00 269.00
M 388.00 269.00 
C 394.79 270.27 394.02 282.18 386.30 281.64 C 378.59 281.11 379.52 267.42 388.00 269.00
M 212.00 295.00 
C 219.28 296.29 217.99 309.21 209.99 307.99 C 202.00 306.78 204.08 293.60 212.00 295.00
M 251.00 296.00 
C 257.30 298.88 251.97 311.20 244.78 307.22 C 237.59 303.24 243.31 292.49 251.00 296.00
M 376.00 296.00 
C 382.79 298.54 377.32 311.49 370.33 307.67 C 363.34 303.85 368.09 293.04 376.00 296.00
M 413.00 296.00 
C 420.42 298.78 413.68 311.93 406.78 307.22 C 399.88 302.51 405.48 293.18 413.00 296.00
M 230.00 315.00 
C 236.83 317.56 232.11 330.81 224.97 327.02 C 217.83 323.23 222.27 312.10 230.00 315.00
M 396.00 315.00 
C 403.07 317.37 398.35 329.98 391.00 327.00 C 383.65 324.02 387.90 312.28 396.00 315.00
M 212.00 342.00 
C 219.17 343.89 215.27 357.07 207.78 354.22 C 200.28 351.36 203.99 339.89 212.00 342.00
M 414.00 342.00 
C 420.60 344.47 416.18 357.86 408.78 354.22 C 401.38 350.58 405.90 338.97 414.00 342.00 Z"/>
</g>
<g fill="None" fill-opacity="0.0" stroke="#FAFBFB" stroke-opacity="1.00" stroke-width="0.3"><path d="
M 199.00 191.00 
C 185.29 186.84 179.03 207.35 192.00 212.00 C 204.97 216.65 211.89 194.91 199.00 191.00 Z"/>
</g>
<g fill="None" fill-opacity="0.0" stroke="#FAFBFB" stroke-opacity="1.00" stroke-width="0.3"><path d="
M 429.00 191.00 
C 415.53 186.91 407.99 204.75 420.78 211.22 C 433.57 217.69 441.54 194.81 429.00 191.00 Z"/>
</g>
<g fill="None" fill-opacity="0.0" stroke="#F8F9FA" stroke-opacity="0.99" stroke-width="0.3"><path d="
M 299.00 228.00 
C 303.38 213.35 278.91 214.41 279.00 227.00
C 285.02 223.27 293.46 222.57 299.00 228.00 Z"/>
</g>
<g fill="None" fill-opacity="0.0" stroke="#F7F9F9" stroke-opacity="1.00" stroke-width="0.3"><path d="
M 341.00 227.00 
C 341.29 214.19 316.86 213.49 321.00 228.00
C 326.44 222.98 335.05 222.60 341.00 227.00 Z"/>
</g>
<g fill="None" fill-opacity="0.0" stroke="#94A6AA" stroke-opacity="0.75" stroke-width="0.3"><path d="
M 321.00 297.00 
C 320.49 290.05 322.25 279.86 322.00 272.00 C 321.75 264.14 320.96 255.09 321.00 248.00
C 320.19 255.93 320.86 265.07 321.00 273.00 C 321.14 280.93 319.69 289.26 321.00 297.00 Z"/>
</g>
<g fill="None" fill-opacity="0.0" stroke="#3F0342" stroke-opacity="1.00" stroke-width="0.3"><path d="
M 235.00 269.00 
C 226.85 267.69 225.44 281.13 233.30 281.64 C 241.17 282.16 242.00 270.12 235.00 269.00 Z"/>
</g>
<g fill="None" fill-opacity="0.0" stroke="#3F0142" stroke-opacity="1.00" stroke-width="0.3"><path d="
M 388.00 269.00 
C 379.52 267.42 378.59 281.11 386.30 281.64 C 394.02 282.18 394.79 270.27 388.00 269.00 Z"/>
</g>
<g fill="None" fill-opacity="0.0" stroke="#3F0042" stroke-opacity="1.00" stroke-width="0.3"><path d="
M 212.00 295.00 
C 204.08 293.60 202.00 306.78 209.99 307.99 C 217.99 309.21 219.28 296.29 212.00 295.00 Z"/>
</g>
<g fill="None" fill-opacity="0.0" stroke="#3F0142" stroke-opacity="1.00" stroke-width="0.3"><path d="
M 251.00 296.00 
C 243.31 292.49 237.59 303.24 244.78 307.22 C 251.97 311.20 257.30 298.88 251.00 296.00 Z"/>
</g>
<g fill="None" fill-opacity="0.0" stroke="#3F0042" stroke-opacity="1.00" stroke-width="0.3"><path d="
M 376.00 296.00 
C 368.09 293.04 363.34 303.85 370.33 307.67 C 377.32 311.49 382.79 298.54 376.00 296.00 Z"/>
</g>
<g fill="None" fill-opacity="0.0" stroke="#3F0042" stroke-opacity="1.00" stroke-width="0.3"><path d="
M 413.00 296.00 
C 405.48 293.18 399.88 302.51 406.78 307.22 C 413.68 311.93 420.42 298.78 413.00 296.00 Z"/>
</g>
<g fill="None" fill-opacity="0.0" stroke="#3F0142" stroke-opacity="1.00" stroke-width="0.3"><path d="
M 230.00 315.00 
C 222.27 312.10 217.83 323.23 224.97 327.02 C 232.11 330.81 236.83 317.56 230.00 315.00 Z"/>
</g>
<g fill="None" fill-opacity="0.0" stroke="#3F0142" stroke-opacity="1.00" stroke-width="0.3"><path d="
M 396.00 315.00 
C 387.90 312.28 383.65 324.02 391.00 327.00 C 398.35 329.98 403.07 317.37 396.00 315.00 Z"/>
</g>
<g fill="None" fill-opacity="0.0" stroke="#3F0142" stroke-opacity="1.00" stroke-width="0.3"><path d="
M 212.00 342.00 
C 203.99 339.89 200.28 351.36 207.78 354.22 C 215.27 357.07 219.17 343.89 212.00 342.00 Z"/>
</g>
<g fill="None" fill-opacity="0.0" stroke="#3F0242" stroke-opacity="1.00" stroke-width="0.3"><path d="
M 414.00 342.00 
C 405.90 338.97 401.38 350.58 408.78 354.22 C 416.18 357.86 420.60 344.47 414.00 342.00 Z"/>
</g>
<g fill="None" fill-opacity="0.0" stroke="#FEFEFE" stroke-opacity="1.00" stroke-width="0.3"><path d="
M 310.00 425.00 
C 313.65 404.67 295.19 371.60 272.08 384.08 C 248.96 396.56 259.29 429.34 262.22 450.78 C 265.15 472.21 291.39 483.83 311.00 484.00 C 330.61 484.17 356.17 469.76 358.22 448.22 C 360.27 426.68 372.13 395.43 347.22 383.78 C 322.32 372.12 309.03 405.73 310.00 425.00 Z"/>
</g>
<g fill="None" fill-opacity="0.0" stroke="#FCFCFC" stroke-opacity="1.00" stroke-width="0.3"><path d="
M 247.00 473.00 
C 243.81 456.76 233.63 442.99 219.70 434.30 C 205.76 425.62 204.35 402.92 185.00 403.00
C 183.48 437.50 215.55 466.40 247.00 473.00 Z"/>
</g>
<g fill="None" fill-opacity="0.0" stroke="#FCFCFC" stroke-opacity="1.00" stroke-width="0.3"><path d="
M 435.00 403.00 
C 416.17 403.48 414.53 425.91 400.75 434.75 C 386.97 443.59 376.33 456.47 374.00 473.00
C 405.66 467.07 436.71 437.22 435.00 403.00 Z"/>
</g>
<g fill="None" fill-opacity="0.0" stroke="#FEFEFE" stroke-opacity="1.00" stroke-width="0.3"><path d="
M 392.00 505.00 
C 388.10 515.49 380.81 522.81 372.25 530.25 C 363.69 537.69 355.10 543.32 344.07 547.07 C 333.04 550.83 317.29 553.70 305.00 553.00 C 292.71 552.30 280.43 548.79 269.70 544.31 C 258.96 539.82 251.68 533.37 243.25 525.75 C 234.82 518.13 231.77 505.96 221.22 502.78 C 210.68 499.59 203.46 490.84 194.00 486.00
C 190.71 507.39 191.05 533.57 196.01 553.99 C 200.97 574.42 221.43 576.91 239.98 584.02 C 258.52 591.14 282.21 593.40 303.00 595.00 C 323.79 596.60 350.01 592.18 369.32 587.32 C 388.63 582.46 404.09 574.89 422.00 567.00
C 428.28 540.98 431.30 512.82 426.00 486.00
C 415.72 494.11 404.97 502.53 392.00 505.00 Z"/>
</g>
<g fill="None" fill-opacity="0.0" stroke="#FCFDFD" stroke-opacity="1.00" stroke-width="0.3"><path d="
M 378.00 492.00 
C 353.28 492.45 335.38 508.19 310.00 508.00 C 284.62 507.81 267.74 492.27 243.00 492.00
C 266.60 545.05 354.29 545.33 378.00 492.00 Z"/>
</g>
<g fill="None" fill-opacity="0.0" stroke="#8A9BA2" stroke-opacity="0.13" stroke-width="0.3"><path d="
M 312.00 618.00 
C 309.00 618.00 306.00 618.00 303.00 618.00
C 305.76 618.27 309.18 618.27 312.00 618.00 Z"/>
</g>
<g fill="#000000" fill-opacity="0.00" stroke="None">
<path d="
M 0.00 620.00 
L 620.00 620.00
L 620.00 0.00
L 0.00 0.00
L 0.00 620.00
M 312.00 618.00 
C 309.18 618.27 305.76 618.27 303.00 618.00
C 220.66 618.00 146.33 576.18 96.23 509.77 C 46.13 443.36 25.98 342.33 53.00 261.00
C 60.84 265.31 66.21 274.31 74.00 279.00
C 50.82 367.59 79.04 468.96 147.00 529.00
C 152.70 507.75 157.77 486.38 163.00 465.00
C 122.48 415.30 103.96 342.59 133.00 283.00
C 105.57 274.59 81.64 266.41 64.70 240.30 C 47.75 214.20 56.92 176.92 46.22 147.78 C 35.52 118.64 33.33 83.48 34.93 52.93 C 36.53 22.37 63.33 -3.42 93.02 1.98 C 122.72 7.37 141.40 24.04 160.75 45.25 C 180.11 66.45 193.53 86.44 208.00 110.00
C 268.96 71.96 351.53 72.99 413.00 109.00
C 427.63 85.61 439.77 66.47 459.30 45.30 C 478.84 24.14 497.30 7.40 527.00 2.00 C 556.70 -3.40 583.22 22.21 585.00 53.00 C 586.78 83.79 584.48 118.73 573.67 147.67 C 562.86 176.61 572.37 214.31 555.25 240.25 C 538.12 266.18 514.69 274.86 487.00 283.00
C 516.83 342.24 497.64 415.70 457.00 465.00
C 462.43 486.72 467.62 508.53 474.00 530.00
C 479.54 523.50 485.16 518.78 490.75 512.75 C 496.33 506.72 501.34 500.06 506.25 493.25 C 511.17 486.45 515.02 479.71 519.31 472.31 C 523.59 464.90 527.71 457.41 531.31 449.31 C 534.90 441.20 538.16 433.73 540.93 424.93 C 543.70 416.13 546.01 406.65 548.33 397.33 C 550.65 388.01 551.95 378.01 553.00 368.00 C 554.05 357.99 554.15 345.53 554.22 335.78 C 554.29 326.03 552.04 312.91 552.00 304.00 C 551.96 295.09 543.92 283.63 548.25 277.25 C 552.58 270.87 561.78 266.12 567.00 261.00
C 594.19 344.24 573.90 442.62 523.08 511.08 C 472.27 579.55 395.70 617.57 312.00 618.00 Z"/>
</g>
<g fill="#000000" fill-opacity="1.00" stroke="None">
<path d="
M 303.00 618.00 
C 306.00 618.00 309.00 618.00 312.00 618.00
C 395.70 617.57 472.27 579.55 523.08 511.08 C 573.90 442.62 594.19 344.24 567.00 261.00
C 561.78 266.12 552.58 270.87 548.25 277.25 C 543.92 283.63 551.96 295.09 552.00 304.00 C 552.04 312.91 554.29 326.03 554.22 335.78 C 554.15 345.53 554.05 357.99 553.00 368.00 C 551.95 378.01 550.65 388.01 548.33 397.33 C 546.01 406.65 543.70 416.13 540.93 424.93 C 538.16 433.73 534.90 441.20 531.31 449.31 C 527.71 457.41 523.59 464.90 519.31 472.31 C 515.02 479.71 511.17 486.45 506.25 493.25 C 501.34 500.06 496.33 506.72 490.75 512.75 C 485.16 518.78 479.54 523.50 474.00 530.00
C 467.62 508.53 462.43 486.72 457.00 465.00
C 497.64 415.70 516.83 342.24 487.00 283.00
C 514.69 274.86 538.12 266.18 555.25 240.25 C 572.37 214.31 562.86 176.61 573.67 147.67 C 584.48 118.73 586.78 83.79 585.00 53.00 C 583.22 22.21 556.70 -3.40 527.00 2.00 C 497.30 7.40 478.84 24.14 459.30 45.30 C 439.77 66.47 427.63 85.61 413.00 109.00
C 351.53 72.99 268.96 71.96 208.00 110.00
C 193.53 86.44 180.11 66.45 160.75 45.25 C 141.40 24.04 122.72 7.37 93.02 1.98 C 63.33 -3.42 36.53 22.37 34.93 52.93 C 33.33 83.48 35.52 118.64 46.22 147.78 C 56.92 176.92 47.75 214.20 64.70 240.30 C 81.64 266.41 105.57 274.59 133.00 283.00
C 103.96 342.59 122.48 415.30 163.00 465.00
C 157.77 486.38 152.70 507.75 147.00 529.00
C 79.04 468.96 50.82 367.59 74.00 279.00
C 66.21 274.31 60.84 265.31 53.00 261.00
C 25.98 342.33 46.13 443.36 96.23 509.77 C 146.33 576.18 220.66 618.00 303.00 618.00
M 321.00 297.00 
C 319.69 289.26 321.14 280.93 321.00 273.00 C 320.86 265.07 320.19 255.93 321.00 248.00
C 321.38 244.33 322.63 240.91 325.00 238.00
C 336.12 260.11 372.25 243.39 361.22 223.78 C 350.19 204.17 332.33 196.74 311.00 197.00 C 289.66 197.26 272.32 202.14 260.08 222.08 C 247.83 242.01 282.94 261.41 295.00 238.00
C 302.22 245.73 298.20 257.46 299.00 268.00 C 299.80 278.54 298.40 291.26 299.00 302.00
C 287.55 306.68 278.29 316.10 270.25 326.25 C 262.21 336.40 257.79 347.21 247.75 356.75 C 237.71 366.29 231.24 373.83 216.98 378.98 C 202.71 384.12 188.48 385.60 171.98 381.02 C 155.47 376.45 160.54 361.10 174.23 354.23 C 187.92 347.36 191.05 332.74 194.00 320.00
C 183.05 328.00 175.74 341.39 160.77 345.77 C 145.80 350.15 139.22 367.28 137.00 381.00
C 129.29 366.58 131.37 339.28 147.70 331.70 C 164.03 324.11 173.26 311.55 181.75 296.75 C 190.24 281.96 199.79 270.02 208.75 255.75 C 217.72 241.48 227.25 228.77 236.75 214.75 C 246.25 200.73 259.62 189.85 276.00 185.00
C 271.23 164.31 254.26 150.39 254.00 128.00 C 253.74 105.61 291.92 103.58 309.00 104.00 C 326.08 104.42 363.78 103.70 366.00 126.00 C 368.22 148.30 347.76 164.08 345.00 185.00
C 360.15 190.86 374.62 200.10 383.75 214.25 C 392.88 228.39 402.53 241.00 411.77 255.23 C 421.01 269.46 430.29 281.86 439.25 296.75 C 448.22 311.63 456.34 323.77 473.25 331.75 C 490.15 339.74 489.35 368.37 483.00 383.00
C 478.94 374.51 480.13 361.64 472.75 354.25 C 465.37 346.86 456.53 344.00 447.92 339.08 C 439.32 334.15 434.78 324.03 427.00 320.00
C 430.41 332.72 431.73 347.32 445.75 354.25 C 459.77 361.18 464.38 377.02 447.31 381.31 C 430.24 385.59 415.82 384.34 401.78 378.22 C 387.74 372.11 380.66 365.30 371.08 354.92 C 361.51 344.54 356.28 334.62 348.23 323.77 C 340.18 312.92 327.63 307.35 321.00 297.00
M 199.00 191.00 
C 211.89 194.91 204.97 216.65 192.00 212.00 C 179.03 207.35 185.29 186.84 199.00 191.00
M 429.00 191.00 
C 441.54 194.81 433.57 217.69 420.78 211.22 C 407.99 204.75 415.53 186.91 429.00 191.00
M 299.00 228.00 
C 293.46 222.57 285.02 223.27 279.00 227.00
C 278.91 214.41 303.38 213.35 299.00 228.00
M 341.00 227.00 
C 335.05 222.60 326.44 222.98 321.00 228.00
C 316.86 213.49 341.29 214.19 341.00 227.00
M 310.00 425.00 
C 309.03 405.73 322.32 372.12 347.22 383.78 C 372.13 395.43 360.27 426.68 358.22 448.22 C 356.17 469.76 330.61 484.17 311.00 484.00 C 291.39 483.83 265.15 472.21 262.22 450.78 C 259.29 429.34 248.96 396.56 272.08 384.08 C 295.19 371.60 313.65 404.67 310.00 425.00
M 247.00 473.00 
C 215.55 466.40 183.48 437.50 185.00 403.00
C 204.35 402.92 205.76 425.62 219.70 434.30 C 233.63 442.99 243.81 456.76 247.00 473.00
M 435.00 403.00 
C 436.71 437.22 405.66 467.07 374.00 473.00
C 376.33 456.47 386.97 443.59 400.75 434.75 C 414.53 425.91 416.17 403.48 435.00 403.00
M 392.00 505.00 
C 404.97 502.53 415.72 494.11 426.00 486.00
C 431.30 512.82 428.28 540.98 422.00 567.00
C 404.09 574.89 388.63 582.46 369.32 587.32 C 350.01 592.18 323.79 596.60 303.00 595.00 C 282.21 593.40 258.52 591.14 239.98 584.02 C 221.43 576.91 200.97 574.42 196.01 553.99 C 191.05 533.57 190.71 507.39 194.00 486.00
C 203.46 490.84 210.68 499.59 221.22 502.78 C 231.77 505.96 234.82 518.13 243.25 525.75 C 251.68 533.37 258.96 539.82 269.70 544.31 C 280.43 548.79 292.71 552.30 305.00 553.00 C 317.29 553.70 333.04 550.83 344.07 547.07 C 355.10 543.32 363.69 537.69 372.25 530.25 C 380.81 522.81 388.10 515.49 392.00 505.00
M 378.00 492.00 
C 354.29 545.33 266.60 545.05 243.00 492.00
C 267.74 492.27 284.62 507.81 310.00 508.00 C 335.38 508.19 353.28 492.45 378.00 492.00 Z"/>
</g>
<g fill="#FDFDFE" fill-opacity="1.00" stroke="None">
<path d="
M 321.00 248.00 
C 320.96 255.09 321.75 264.14 322.00 272.00 C 322.25 279.86 320.49 290.05 321.00 297.00
C 327.63 307.35 340.18 312.92 348.23 323.77 C 356.28 334.62 361.51 344.54 371.08 354.92 C 380.66 365.30 387.74 372.11 401.78 378.22 C 415.82 384.34 430.24 385.59 447.31 381.31 C 464.38 377.02 459.77 361.18 445.75 354.25 C 431.73 347.32 430.41 332.72 427.00 320.00
C 434.78 324.03 439.32 334.15 447.92 339.08 C 456.53 344.00 465.37 346.86 472.75 354.25 C 480.13 361.64 478.94 374.51 483.00 383.00
C 489.35 368.37 490.15 339.74 473.25 331.75 C 456.34 323.77 448.22 311.63 439.25 296.75 C 430.29 281.86 421.01 269.46 411.77 255.23 C 402.53 241.00 392.88 228.39 383.75 214.25 C 374.62 200.10 360.15 190.86 345.00 185.00
C 347.76 164.08 368.22 148.30 366.00 126.00 C 363.78 103.70 326.08 104.42 309.00 104.00 C 291.92 103.58 253.74 105.61 254.00 128.00 C 254.26 150.39 271.23 164.31 276.00 185.00
C 259.62 189.85 246.25 200.73 236.75 214.75 C 227.25 228.77 217.72 241.48 208.75 255.75 C 199.79 270.02 190.24 281.96 181.75 296.75 C 173.26 311.55 164.03 324.11 147.70 331.70 C 131.37 339.28 129.29 366.58 137.00 381.00
C 139.22 367.28 145.80 350.15 160.77 345.77 C 175.74 341.39 183.05 328.00 194.00 320.00
C 191.05 332.74 187.92 347.36 174.23 354.23 C 160.54 361.10 155.47 376.45 171.98 381.02 C 188.48 385.60 202.71 384.12 216.98 378.98 C 231.24 373.83 237.71 366.29 247.75 356.75 C 257.79 347.21 262.21 336.40 270.25 326.25 C 278.29 316.10 287.55 306.68 299.00 302.00
C 298.40 291.26 299.80 278.54 299.00 268.00 C 298.20 257.46 302.22 245.73 295.00 238.00
C 282.94 261.41 247.83 242.01 260.08 222.08 C 272.32 202.14 289.66 197.26 311.00 197.00 C 332.33 196.74 350.19 204.17 361.22 223.78 C 372.25 243.39 336.12 260.11 325.00 238.00
C 322.63 240.91 321.38 244.33 321.00 248.00
M 235.00 269.00 
C 242.00 270.12 241.17 282.16 233.30 281.64 C 225.44 281.13 226.85 267.69 235.00 269.00
M 388.00 269.00 
C 394.79 270.27 394.02 282.18 386.30 281.64 C 378.59 281.11 379.52 267.42 388.00 269.00
M 212.00 295.00 
C 219.28 296.29 217.99 309.21 209.99 307.99 C 202.00 306.78 204.08 293.60 212.00 295.00
M 251.00 296.00 
C 257.30 298.88 251.97 311.20 244.78 307.22 C 237.59 303.24 243.31 292.49 251.00 296.00
M 376.00 296.00 
C 382.79 298.54 377.32 311.49 370.33 307.67 C 363.34 303.85 368.09 293.04 376.00 296.00
M 413.00 296.00 
C 420.42 298.78 413.68 311.93 406.78 307.22 C 399.88 302.51 405.48 293.18 413.00 296.00
M 230.00 315.00 
C 236.83 317.56 232.11 330.81 224.97 327.02 C 217.83 323.23 222.27 312.10 230.00 315.00
M 396.00 315.00 
C 403.07 317.37 398.35 329.98 391.00 327.00 C 383.65 324.02 387.90 312.28 396.00 315.00
M 212.00 342.00 
C 219.17 343.89 215.27 357.07 207.78 354.22 C 200.28 351.36 203.99 339.89 212.00 342.00
M 414.00 342.00 
C 420.60 344.47 416.18 357.86 408.78 354.22 C 401.38 350.58 405.90 338.97 414.00 342.00 Z"/>
</g>
<g fill="#FAFBFB" fill-opacity="1.00" stroke="None">
<path d="
M 199.00 191.00 
C 185.29 186.84 179.03 207.35 192.00 212.00 C 204.97 216.65 211.89 194.91 199.00 191.00 Z"/>
</g>
<g fill="#FAFBFB" fill-opacity="1.00" stroke="None">
<path d="
M 429.00 191.00 
C 415.53 186.91 407.99 204.75 420.78 211.22 C 433.57 217.69 441.54 194.81 429.00 191.00 Z"/>
</g>
<g fill="#F8F9FA" fill-opacity="0.99" stroke="None">
<path d="
M 299.00 228.00 
C 303.38 213.35 278.91 214.41 279.00 227.00
C 285.02 223.27 293.46 222.57 299.00 228.00 Z"/>
</g>
<g fill="#F7F9F9" fill-opacity="1.00" stroke="None">
<path d="
M 341.00 227.00 
C 341.29 214.19 316.86 213.49 321.00 228.00
C 326.44 222.98 335.05 222.60 341.00 227.00 Z"/>
</g>
<g fill="#94A6AA" fill-opacity="0.75" stroke="None">
<path d="
M 321.00 297.00 
C 320.49 290.05 322.25 279.86 322.00 272.00 C 321.75 264.14 320.96 255.09 321.00 248.00
C 320.19 255.93 320.86 265.07 321.00 273.00 C 321.14 280.93 319.69 289.26 321.00 297.00 Z"/>
</g>
<g fill="#3F0342" fill-opacity="1.00" stroke="None">
<path d="
M 235.00 269.00 
C 226.85 267.69 225.44 281.13 233.30 281.64 C 241.17 282.16 242.00 270.12 235.00 269.00 Z"/>
</g>
<g fill="#3F0142" fill-opacity="1.00" stroke="None">
<path d="
M 388.00 269.00 
C 379.52 267.42 378.59 281.11 386.30 281.64 C 394.02 282.18 394.79 270.27 388.00 269.00 Z"/>
</g>
<g fill="#3F0042" fill-opacity="1.00" stroke="None">
<path d="
M 212.00 295.00 
C 204.08 293.60 202.00 306.78 209.99 307.99 C 217.99 309.21 219.28 296.29 212.00 295.00 Z"/>
</g>
<g fill="#3F0142" fill-opacity="1.00" stroke="None">
<path d="
M 251.00 296.00 
C 243.31 292.49 237.59 303.24 244.78 307.22 C 251.97 311.20 257.30 298.88 251.00 296.00 Z"/>
</g>
<g fill="#3F0042" fill-opacity="1.00" stroke="None">
<path d="
M 376.00 296.00 
C 368.09 293.04 363.34 303.85 370.33 307.67 C 377.32 311.49 382.79 298.54 376.00 296.00 Z"/>
</g>
<g fill="#3F0042" fill-opacity="1.00" stroke="None">
<path d="
M 413.00 296.00 
C 405.48 293.18 399.88 302.51 406.78 307.22 C 413.68 311.93 420.42 298.78 413.00 296.00 Z"/>
</g>
<g fill="#3F0142" fill-opacity="1.00" stroke="None">
<path d="
M 230.00 315.00 
C 222.27 312.10 217.83 323.23 224.97 327.02 C 232.11 330.81 236.83 317.56 230.00 315.00 Z"/>
</g>
<g fill="#3F0142" fill-opacity="1.00" stroke="None">
<path d="
M 396.00 315.00 
C 387.90 312.28 383.65 324.02 391.00 327.00 C 398.35 329.98 403.07 317.37 396.00 315.00 Z"/>
</g>
<g fill="#3F0142" fill-opacity="1.00" stroke="None">
<path d="
M 212.00 342.00 
C 203.99 339.89 200.28 351.36 207.78 354.22 C 215.27 357.07 219.17 343.89 212.00 342.00 Z"/>
</g>
<g fill="#3F0242" fill-opacity="1.00" stroke="None">
<path d="
M 414.00 342.00 
C 405.90 338.97 401.38 350.58 408.78 354.22 C 416.18 357.86 420.60 344.47 414.00 342.00 Z"/>
</g>
<g fill="#FEFEFE" fill-opacity="1.00" stroke="None">
<path d="
M 310.00 425.00 
C 313.65 404.67 295.19 371.60 272.08 384.08 C 248.96 396.56 259.29 429.34 262.22 450.78 C 265.15 472.21 291.39 483.83 311.00 484.00 C 330.61 484.17 356.17 469.76 358.22 448.22 C 360.27 426.68 372.13 395.43 347.22 383.78 C 322.32 372.12 309.03 405.73 310.00 425.00 Z"/>
</g>
<g fill="#FCFCFC" fill-opacity="1.00" stroke="None">
<path d="
M 247.00 473.00 
C 243.81 456.76 233.63 442.99 219.70 434.30 C 205.76 425.62 204.35 402.92 185.00 403.00
C 183.48 437.50 215.55 466.40 247.00 473.00 Z"/>
</g>
<g fill="#FCFCFC" fill-opacity="1.00" stroke="None">
<path d="
M 435.00 403.00 
C 416.17 403.48 414.53 425.91 400.75 434.75 C 386.97 443.59 376.33 456.47 374.00 473.00
C 405.66 467.07 436.71 437.22 435.00 403.00 Z"/>
</g>
<g fill="#FEFEFE" fill-opacity="1.00" stroke="None">
<path d="
M 392.00 505.00 
C 388.10 515.49 380.81 522.81 372.25 530.25 C 363.69 537.69 355.10 543.32 344.07 547.07 C 333.04 550.83 317.29 553.70 305.00 553.00 C 292.71 552.30 280.43 548.79 269.70 544.31 C 258.96 539.82 251.68 533.37 243.25 525.75 C 234.82 518.13 231.77 505.96 221.22 502.78 C 210.68 499.59 203.46 490.84 194.00 486.00
C 190.71 507.39 191.05 533.57 196.01 553.99 C 200.97 574.42 221.43 576.91 239.98 584.02 C 258.52 591.14 282.21 593.40 303.00 595.00 C 323.79 596.60 350.01 592.18 369.32 587.32 C 388.63 582.46 404.09 574.89 422.00 567.00
C 428.28 540.98 431.30 512.82 426.00 486.00
C 415.72 494.11 404.97 502.53 392.00 505.00 Z"/>
</g>
<g fill="#FCFDFD" fill-opacity="1.00" stroke="None">
<path d="
M 378.00 492.00 
C 353.28 492.45 335.38 508.19 310.00 508.00 C 284.62 507.81 267.74 492.27 243.00 492.00
C 266.60 545.05 354.29 545.33 378.00 492.00 Z"/>
</g>
<g fill="#8A9BA2" fill-opacity="0.13" stroke="None">
<path d="
M 312.00 618.00 
C 309.00 618.00 306.00 618.00 303.00 618.00
C 305.76 618.27 309.18 618.27 312.00 618.00 Z"/>
</g>
</svg>