<?xml version="1.0" standalone="no"?>
<!DOCTYPE svg PUBLIC "-//W3C//DTD SVG 20010904//EN"
 "http://www.w3.org/TR/2001/REC-SVG-20010904/DTD/svg10.dtd">
<svg version="1.0" xmlns="http://www.w3.org/2000/svg"
 width="500.000000pt" height="500.000000pt" viewBox="0 0 500.000000 500.000000"
 preserveAspectRatio="xMidYMid meet">

<g transform="translate(0.000000,500.000000) scale(0.100000,-0.100000)"
fill="#000000" stroke="none">
<path d="M2510 4570 c-10 -6 -17 -32 -20 -72 l-5 -63 -124 -7 c-461 -25 -914
-236 -1246 -579 -216 -224 -361 -461 -454 -745 -66 -202 -83 -308 -88 -554 -5
-208 -1 -257 33 -451 6 -34 4 -38 -43 -72 -60 -44 -102 -117 -113 -195 -36
-269 248 -801 522 -975 96 -61 161 -81 273 -81 84 -1 114 4 186 27 l86 28 109
-54 c271 -137 500 -194 814 -204 389 -12 730 76 1060 275 313 189 575 476 735
807 387 798 185 1756 -490 2323 -300 252 -661 407 -1037 445 l-118 11 0 61 c0
34 -5 66 -12 73 -14 14 -47 15 -68 2z m-30 -304 c0 -107 -51 -562 -101 -906
-57 -394 -168 -956 -210 -1062 -13 -31 -14 -31 -239 -48 -371 -29 -1085 -113
-1177 -139 -32 -9 -32 -9 -42 40 -39 183 -40 523 -1 704 65 304 196 578 386
806 91 109 246 254 354 331 276 196 643 322 953 327 l77 1 0 -54z m385 19
c622 -125 1142 -581 1353 -1186 111 -317 130 -662 56 -998 -125 -562 -532
-1051 -1061 -1274 -240 -101 -437 -140 -708 -141 -247 -1 -407 26 -631 105
-71 25 -236 100 -252 114 -2 2 26 34 63 72 195 200 386 606 545 1160 12 42 28
77 38 82 24 13 461 36 472 25 5 -5 20 -56 35 -114 98 -393 200 -677 250 -696
22 -9 65 4 65 19 0 7 -15 49 -34 93 -48 114 -110 310 -162 511 -36 138 -43
177 -33 189 8 10 35 14 96 14 66 0 85 3 90 15 9 26 -5 30 -103 30 -70 0 -97 4
-108 15 -30 31 -131 591 -175 980 -37 322 -71 780 -71 959 l0 63 78 -7 c42 -3
131 -17 197 -30z m-309 -917 c39 -337 79 -596 156 -995 6 -35 9 -65 6 -68 -8
-8 -427 -29 -435 -22 -3 4 4 53 16 110 66 297 135 662 173 913 25 163 47 279
52 274 5 -5 19 -100 32 -212z m-420 -1192 c-12 -62 -117 -389 -163 -506 -113
-288 -248 -527 -369 -658 l-59 -63 -70 47 c-256 172 -477 427 -614 708 -49
100 -121 296 -121 329 0 30 235 68 800 127 162 16 331 34 375 39 44 5 113 9
154 10 l73 1 -6 -34z m-1473 -286 c59 -184 155 -366 290 -550 89 -122 287
-318 399 -395 48 -33 87 -63 87 -66 1 -4 -25 -17 -56 -30 -82 -34 -187 -33
-263 3 -170 79 -340 276 -465 542 -99 209 -132 362 -101 469 15 50 57 117 74
117 4 0 20 -41 35 -90z"/>
<path d="M3125 4064 c-12 -13 -15 -28 -10 -68 12 -107 35 -523 46 -816 18
-483 -2 -1508 -35 -1835 -16 -152 -9 -175 47 -175 45 0 63 19 148 157 243 394
429 626 612 764 108 81 159 110 252 140 104 34 108 54 10 53 -229 -2 -544
-275 -845 -732 -51 -78 -98 -142 -103 -142 -6 0 -8 36 -4 97 34 511 33 1607
-2 2128 -23 338 -33 424 -54 437 -20 12 -44 9 -62 -8z"/>
</g>
</svg>
