<svg xmlns="http://www.w3.org/2000/svg" viewBox="0 0 1200 700" role="img" aria-labelledby="title desc">
  <title id="title">Delivery excellence and DevOps</title>
  <desc id="desc">A delivery pipeline illustration with checkpoints, automation, and observability signals.</desc>
  <defs>
    <linearGradient id="bg" x1="0" y1="0" x2="1" y2="1">
      <stop offset="0%" stop-color="#10213b"/>
      <stop offset="100%" stop-color="#1f8cff"/>
    </linearGradient>
    <linearGradient id="accent" x1="0" y1="0" x2="1" y2="1">
      <stop offset="0%" stop-color="#76ffd5"/>
      <stop offset="100%" stop-color="#c7fff1"/>
    </linearGradient>
  </defs>
  <rect width="1200" height="700" rx="48" fill="url(#bg)"/>
  <circle cx="210" cy="170" r="100" fill="#ffffff" opacity="0.06"/>
  <circle cx="980" cy="540" r="160" fill="#ffffff" opacity="0.06"/>
  <rect x="140" y="130" width="920" height="440" rx="40" fill="#ffffff" opacity="0.08"/>
  <path d="M240 360 H448" stroke="#c7fff1" stroke-width="18" stroke-linecap="round"/>
  <path d="M448 360 H660" stroke="#ffffff" stroke-width="18" stroke-linecap="round"/>
  <path d="M660 360 H886" stroke="#76ffd5" stroke-width="18" stroke-linecap="round"/>
  <circle cx="240" cy="360" r="42" fill="#ffffff" opacity="0.92"/>
  <circle cx="448" cy="360" r="42" fill="#c7fff1"/>
  <circle cx="660" cy="360" r="42" fill="#ffffff" opacity="0.92"/>
  <circle cx="886" cy="360" r="42" fill="#76ffd5"/>
  <path d="M224 360 l12 12 24 -28" stroke="#10213b" stroke-width="10" fill="none" stroke-linecap="round" stroke-linejoin="round"/>
  <path d="M432 360 l12 12 24 -28" stroke="#10213b" stroke-width="10" fill="none" stroke-linecap="round" stroke-linejoin="round"/>
  <path d="M644 360 l12 12 24 -28" stroke="#10213b" stroke-width="10" fill="none" stroke-linecap="round" stroke-linejoin="round"/>
  <path d="M870 360 l12 12 24 -28" stroke="#10213b" stroke-width="10" fill="none" stroke-linecap="round" stroke-linejoin="round"/>
  <rect x="280" y="220" width="190" height="72" rx="24" fill="#ffffff" opacity="0.88"/>
  <rect x="524" y="220" width="162" height="72" rx="24" fill="#76ffd5"/>
  <rect x="726" y="220" width="190" height="72" rx="24" fill="#ffffff" opacity="0.76"/>
  <path d="M326 256 h110" stroke="#10213b" stroke-width="12" stroke-linecap="round"/>
  <path d="M560 256 h90" stroke="#10213b" stroke-width="12" stroke-linecap="round"/>
  <path d="M770 256 h106" stroke="#10213b" stroke-width="12" stroke-linecap="round"/>
  <rect x="300" y="470" width="600" height="22" rx="11" fill="#ffffff" opacity="0.7"/>
  <rect x="300" y="510" width="480" height="22" rx="11" fill="url(#accent)"/>
</svg>
