<svg xmlns="http://www.w3.org/2000/svg" viewBox="0 0 1200 700" role="img" aria-labelledby="title desc">
  <title id="title">Fractional CTO advisory</title>
  <desc id="desc">A dashboard-style illustration with strategy charts and direction indicators.</desc>
  <defs>
    <linearGradient id="bg" x1="0" y1="0" x2="1" y2="1">
      <stop offset="0%" stop-color="#1f2357"/>
      <stop offset="100%" stop-color="#2f7ef7"/>
    </linearGradient>
    <linearGradient id="accent" x1="0" y1="0" x2="1" y2="1">
      <stop offset="0%" stop-color="#76e8ff"/>
      <stop offset="100%" stop-color="#cde6ff"/>
    </linearGradient>
  </defs>
  <rect width="1200" height="700" rx="48" fill="url(#bg)"/>
  <circle cx="980" cy="140" r="110" fill="#ffffff" opacity="0.08"/>
  <circle cx="140" cy="560" r="160" fill="#ffffff" opacity="0.08"/>
  <rect x="110" y="120" width="430" height="460" rx="34" fill="#0f1638" opacity="0.5"/>
  <rect x="160" y="180" width="330" height="22" rx="11" fill="#ffffff" opacity="0.82"/>
  <rect x="160" y="228" width="220" height="16" rx="8" fill="#cde6ff" opacity="0.75"/>
  <rect x="160" y="298" width="120" height="160" rx="20" fill="#76e8ff"/>
  <rect x="310" y="258" width="120" height="200" rx="20" fill="#ffffff" opacity="0.9"/>
  <rect x="460" y="320" width="60" height="138" rx="20" fill="#b9d7ff"/>
  <path d="M170 472 C240 410, 270 374, 330 350 S430 306, 490 268" fill="none" stroke="url(#accent)" stroke-width="16" stroke-linecap="round"/>
  <path d="M486 256 l22 8 -10 22" fill="none" stroke="#ffffff" stroke-width="12" stroke-linecap="round" stroke-linejoin="round"/>
  <circle cx="330" cy="350" r="14" fill="#ffffff"/>
  <circle cx="490" cy="268" r="14" fill="#ffffff"/>
  <rect x="628" y="130" width="462" height="430" rx="36" fill="#ffffff" opacity="0.08"/>
  <rect x="676" y="186" width="132" height="132" rx="28" fill="#ffffff" opacity="0.92"/>
  <rect x="840" y="186" width="132" height="132" rx="28" fill="#76e8ff"/>
  <rect x="1004" y="186" width="36" height="132" rx="18" fill="#ffffff" opacity="0.45"/>
  <rect x="676" y="354" width="364" height="28" rx="14" fill="#ffffff" opacity="0.82"/>
  <rect x="676" y="408" width="282" height="22" rx="11" fill="#cde6ff" opacity="0.75"/>
  <rect x="676" y="450" width="332" height="22" rx="11" fill="#cde6ff" opacity="0.52"/>
  <path d="M904 248 l34 -34 34 34" fill="none" stroke="#1f2357" stroke-width="12" stroke-linecap="round" stroke-linejoin="round"/>
  <path d="M938 214 v92" fill="none" stroke="#1f2357" stroke-width="12" stroke-linecap="round"/>
</svg>
